<?xml version="1.0" encoding="utf-8"?>
<!-- Generator: Adobe Illustrator 24.3.0, SVG Export Plug-In . SVG Version: 6.00 Build 0)  -->
<svg version="1.1" id="Layer_1" xmlns="http://www.w3.org/2000/svg" xmlns:xlink="http://www.w3.org/1999/xlink" x="0px" y="0px"
	 viewBox="0 0 622.11 304.21" style="enable-background:new 0 0 622.11 304.21;" xml:space="preserve">
<style type="text/css">
	.st0{fill:#FFFFFF;}
	.st1{fill:#E63222;}
</style>
<rect x="-90.21" y="-102.74" class="st0" width="841.89" height="595.28"/>
<g>
	<path d="M224.84,97c-0.37,1.16-0.91,2.56-1.63,4.2c-0.72,1.64-1.47,3.23-2.25,4.75c-0.79,1.53-1.53,2.82-2.22,3.88
		c-0.69,1.06-1.2,1.6-1.53,1.6c-0.51,0-1.46-0.32-2.84-0.97c-1.39-0.65-2.9-1.49-4.54-2.53c-1.64-1.04-3.23-2.24-4.75-3.61
		s-2.66-2.79-3.4-4.27c0-0.14,0.12-0.56,0.35-1.25c0.23-0.69,0.53-1.5,0.9-2.43c0.42-0.92,0.86-1.94,1.32-3.05
		c0.46-1.11,0.95-2.17,1.46-3.19c0.51-1.02,1.01-1.93,1.49-2.74c0.49-0.81,0.91-1.4,1.28-1.77c1.43,1.48,2.89,2.82,4.37,4.02
		c1.48,1.2,2.94,2.29,4.37,3.26c1.43,0.97,2.8,1.79,4.09,2.46c1.29,0.67,2.47,1.17,3.54,1.49V97z"/>
	<path d="M72.76,132.52c0,0.32-0.28,0.69-0.83,1.11c-7.63,5.32-14.21,10.73-19.74,16.23c-5.53,5.5-10.09,11.1-13.7,16.79
		c-3.61,5.69-6.27,11.45-7.98,17.27c-1.71,5.83-2.57,11.72-2.57,17.69c0,6.1,0.89,11.75,2.67,16.93c1.78,5.18,4.27,9.89,7.46,14.12
		c3.19,4.23,7,7.98,11.41,11.24c4.42,3.26,9.27,5.99,14.57,8.19c5.3,2.2,10.93,3.86,16.89,5c5.97,1.13,12.12,1.7,18.45,1.7
		c6.29,0,12.82-0.49,19.6-1.46c6.77-0.97,13.62-2.41,20.54-4.3c6.91-1.9,13.83-4.22,20.74-6.97c6.91-2.75,13.68-5.91,20.29-9.47
		c6.61-3.56,13.01-7.52,19.18-11.86c6.17-4.35,11.99-9.04,17.45-14.08c3.65-3.38,6.93-6.79,9.82-10.23
		c2.89-3.45,5.34-6.73,7.35-9.85s3.54-5.99,4.58-8.6c1.04-2.61,1.56-4.8,1.56-6.56c0-1.11-0.2-2.27-0.59-3.47
		c-0.39-1.2-1.12-2.36-2.19-3.47h-0.56c-2.45,1.8-4.76,3.11-6.94,3.92c-2.17,0.81-4.3,1.21-6.38,1.21c-2.68,0-4.91-0.55-6.69-1.67
		c-1.78-1.11-3.21-2.43-4.3-3.95c-1.09-1.53-1.86-3.11-2.32-4.75c-0.46-1.64-0.69-2.99-0.69-4.06c0-0.88,0.11-2.08,0.35-3.61
		c0.23-1.53,0.52-3.17,0.87-4.93c0.35-1.76,0.73-3.56,1.14-5.41c0.37-1.85,0.69-3.58,0.97-5.2c0.65-3.47,1.76-6.23,3.33-8.29
		c1.57-2.06,3.88-3.09,6.94-3.09c2.36,0,4.58,0.73,6.66,2.19c2.08,1.46,4.02,3.41,5.83,5.86c1.57,2.5,2.97,5.17,4.2,8.01
		c1.23,2.84,2.27,5.94,3.12,9.3c0.85,3.35,1.51,7,1.98,10.93c0.46,3.93,0.69,8.21,0.69,12.83c0,4.53-0.5,8.98-1.49,13.36
		c-1,4.37-2.56,8.75-4.68,13.15c-2.13,4.39-4.87,8.83-8.22,13.32c-3.35,4.49-7.39,9.11-12.11,13.88c-5.6,5.6-11.55,10.69-17.86,15.3
		c-6.31,4.6-12.82,8.72-19.53,12.35c-6.71,3.63-13.55,6.77-20.54,9.43c-6.98,2.66-13.97,4.88-20.95,6.66
		c-6.98,1.78-13.88,3.1-20.67,3.96c-6.8,0.86-13.39,1.28-19.77,1.28c-7.12,0-14.04-0.65-20.74-1.94c-6.71-1.3-13.01-3.26-18.91-5.9
		c-5.9-2.64-11.3-5.93-16.2-9.89c-4.9-3.95-9.11-8.58-12.63-13.88c-3.52-5.3-6.26-11.26-8.22-17.9c-1.97-6.64-2.95-13.96-2.95-21.96
		c0-6.01,0.65-11.91,1.94-17.69c1.29-5.78,3.31-11.45,6.04-17c2.73-5.55,6.21-10.96,10.44-16.23c4.23-5.27,9.28-10.41,15.16-15.4
		c4.39-3.7,8.15-6.41,11.27-8.12s5.14-2.57,6.07-2.57c0.37,0,0.69,0.04,0.97,0.1C72.62,132.14,72.76,132.29,72.76,132.52z"/>
	<path d="M260.5,128.36c0.97-2.78,1.97-5.6,2.98-8.46c0.97-2.87,2.06-5.87,3.26-9.02h0.55c3.56,8.05,6.6,16.19,9.12,24.42
		c2.52,8.23,4.61,16.65,6.28,25.25c1.62,8.6,3.43,16.66,5.45,24.18c2.01,7.52,4.13,14.16,6.35,19.95l-1.39,5.83
		c-1.06,0-2.22-0.4-3.47-1.21c-1.25-0.81-2.57-2.33-3.96-4.58c-1.39-2.24-2.79-5.34-4.2-9.3c-1.41-3.96-2.76-9.1-4.06-15.44
		c-1.53-7.26-3.7-15.17-6.52-23.73S264.61,138.4,260.5,128.36z"/>
	<path d="M278.95,160.34c1.39,1.62,2.47,3.13,3.26,4.54c0.79,1.41,1.32,2.72,1.6,3.92c0.14,0.6,0.37,1.57,0.69,2.91
		c0.32,1.34,0.72,2.89,1.18,4.65c0.46,1.76,0.97,3.65,1.53,5.69c0.55,2.03,1.13,4.05,1.73,6.04c1.16,3.98,2.43,7.37,3.82,10.16
		c1.39,2.8,2.96,5.06,4.72,6.8c1.76,1.73,3.76,2.99,6,3.78c2.24,0.79,4.8,1.18,7.67,1.18c1.76,0,3.62-0.39,5.58-1.18
		c1.96-0.79,3.91-1.87,5.83-3.26c1.92-1.39,3.76-3.06,5.52-5.03c1.76-1.97,3.33-4.13,4.72-6.49c1.02-1.67,2.01-3.56,2.98-5.69
		c0.92-2.17,1.86-4.21,2.81-6.1c0.95-1.9,1.92-3.5,2.91-4.82c0.99-1.32,2.02-1.98,3.09-1.98c0.88,0,1.76,0.39,2.64,1.18
		c0.88,0.83,1.87,1.73,2.98,2.71c1.11,0.97,2.42,1.86,3.92,2.67s3.32,1.21,5.45,1.21c1.62,0,3.33-0.51,5.13-1.53
		c1.8-1.02,3.75-2.64,5.83-4.86c0.88-0.97,1.65-2.07,2.32-3.29c0.67-1.22,1.28-2.53,1.84-3.92s1.05-2.82,1.49-4.3
		s0.87-2.96,1.28-4.44c0.37-1.25,0.74-2.25,1.11-3.02c0.37-0.76,0.88-1.15,1.53-1.15s1.09,0.23,1.32,0.69
		c0.23,0.46,0.35,0.97,0.35,1.53c0,0.83-0.07,1.69-0.21,2.57c-0.14,0.93-0.21,1.73-0.21,2.43c0,1.48,0.4,2.64,1.21,3.47
		c0.81,0.83,1.88,1.25,3.23,1.25c1.39,0,2.95-0.44,4.68-1.32c1.73-0.88,3.69-2.57,5.86-5.06c1.29-1.43,2.46-3.3,3.5-5.58
		c1.04-2.29,1.95-5.38,2.74-9.26c0.42-2.04,1.2-3.05,2.36-3.05c0.65,0,1.06,0.24,1.25,0.73c0.18,0.49,0.28,1.12,0.28,1.91
		c0,0.55-0.07,1.23-0.21,2.01c-0.14,0.83-0.21,1.6-0.21,2.29c0,1.25,0.68,2.51,2.05,3.78c1.36,1.27,3.09,2.6,5.17,3.99
		c3.19,2.22,5.47,4.41,6.83,6.56c1.36,2.15,2.05,4.27,2.05,6.35v1.8c-1.11,0.79-2.28,1.33-3.5,1.63c-1.23,0.3-2.46,0.45-3.71,0.45
		c-1.39,0-2.84-0.29-4.37-0.87c-1.53-0.58-3.26-1.54-5.2-2.88h-0.42c-1.71,3.24-3.36,5.93-4.96,8.08s-3.17,3.88-4.72,5.2
		c-1.55,1.32-3.08,2.25-4.58,2.81c-1.5,0.56-3,0.83-4.47,0.83c-1.25,0-2.43-0.28-3.54-0.83c-1.11-0.55-2.06-1.53-2.84-2.91h-0.55
		c-3.29,5.6-6.68,9.91-10.2,12.94c-3.52,3.03-7.05,4.54-10.62,4.54c-1.62,0-3.08-0.28-4.37-0.83c-1.3-0.55-2.52-1.18-3.68-1.87
		c-1.16-0.69-2.25-1.32-3.3-1.87c-1.04-0.55-2.07-0.83-3.09-0.83c-0.79,0-1.48,0.4-2.08,1.21c-0.6,0.81-1.21,1.88-1.84,3.23
		c-0.62,1.34-1.28,2.89-1.98,4.65c-0.69,1.76-1.53,3.57-2.5,5.45c-0.97,1.87-2.11,3.75-3.4,5.62c-1.3,1.87-2.82,3.62-4.58,5.24
		c-2.73,2.45-5.57,4.24-8.53,5.38c-2.96,1.13-6.08,1.7-9.37,1.7c-2.87,0-5.62-0.55-8.26-1.67c-2.64-1.11-5.1-2.77-7.39-5
		c-2.29-2.22-4.39-5.03-6.31-8.43s-3.57-7.39-4.96-11.97c-0.92-3.15-1.78-6.33-2.57-9.54c-0.79-3.22-1.46-6.21-2.01-8.98
		c-0.55-2.78-0.99-5.2-1.32-7.28c-0.32-2.08-0.49-3.56-0.49-4.44c0-2.17,0.14-4.3,0.42-6.38c0.28-2.08,0.69-4.02,1.25-5.83H278.95z"
		/>
	<path d="M403.27,150.98c2.31,2.45,4.78,4.31,7.39,5.58c2.61,1.27,5.38,1.91,8.29,1.91c3.1,0,6.3-0.59,9.61-1.77
		c3.31-1.18,6.65-2.84,10.02-5c3.38-2.15,6.78-4.75,10.2-7.8s6.84-6.43,10.27-10.13v-0.42c-4.25-0.69-8.09-1.72-11.52-3.09
		c-3.42-1.36-6.34-3.01-8.74-4.93c-2.41-1.92-4.26-4.08-5.55-6.49c-1.29-2.4-1.94-5.02-1.94-7.84c0-1.76,0.23-3.83,0.69-6.21
		c0.46-2.38,1.29-5.35,2.5-8.92c1.94-5.73,4.69-10.15,8.26-13.25c3.56-3.1,8.16-4.65,13.81-4.65c2.13,0,4.45,0.22,6.97,0.66
		c2.52,0.44,4.86,1.13,7.01,2.08c2.15,0.95,3.94,2.19,5.38,3.71c1.43,1.53,2.15,3.35,2.15,5.48c0,0.83-0.02,1.94-0.07,3.33
		c-0.05,1.39-0.07,2.82-0.07,4.3c0,2.08,0.02,3.77,0.07,5.06c0.04,1.29,0.07,2.34,0.07,3.12c0,0.28-0.04,0.62-0.1,1.04
		c-0.07,0.42-0.31,0.67-0.73,0.76c-0.51,0-0.86-0.42-1.04-1.25c-0.23-0.83-0.67-2.08-1.32-3.75c-0.37-1.11-1.13-2.23-2.29-3.37
		c-1.16-1.13-2.67-2.16-4.54-3.09c-1.87-0.92-4.09-1.68-6.66-2.25c-2.57-0.58-5.47-0.87-8.71-0.87c-2.08,0-4,0.23-5.76,0.69
		c-1.76,0.46-3.28,1.05-4.58,1.77c-1.29,0.72-2.3,1.52-3.02,2.39c-0.72,0.88-1.08,1.71-1.08,2.5c0,2.13,0.81,4.17,2.43,6.14
		s3.82,3.71,6.59,5.24c2.78,1.53,5.98,2.74,9.61,3.64c3.63,0.9,7.46,1.35,11.48,1.35c2.13,0,4.47-0.25,7.04-0.76
		c2.57-0.51,5.28-1.29,8.15-2.36c2.87-1.06,5.84-2.42,8.92-4.06c3.08-1.64,6.19-3.6,9.33-5.86l0.42,0.69
		c-1.11,2.08-2.07,4.05-2.88,5.9c-0.81,1.85-1.61,3.72-2.39,5.62c-0.88,2.22-2.37,4.29-4.47,6.21c-2.11,1.92-4.47,3.85-7.11,5.79
		c-2.64,1.94-5.32,4.01-8.05,6.21c-2.73,2.2-5.16,4.68-7.28,7.46c-4.67,6.06-9.2,11.3-13.6,15.71c-4.39,4.42-8.7,8.06-12.9,10.93
		c-4.21,2.87-8.37,5-12.49,6.38c-4.12,1.39-8.23,2.08-12.35,2.08c-2.73,0-5.27-0.49-7.63-1.46c-2.36-0.97-4.41-2.21-6.14-3.71
		c-1.73-1.5-3.09-3.16-4.06-4.96c-0.97-1.8-1.46-3.56-1.46-5.27c0-1.2,0.25-2.64,0.76-4.3c0.51-1.67,1.32-3.65,2.43-5.97H403.27z"/>
</g>
<g>
	<path class="st1" d="M458.05,284.74c0.05-0.28-0.17,1.38-1.21,4.27c-0.58,1.6-1.19,3.11-1.84,4.54c-0.65,1.43-1.25,2.64-1.8,3.61
		c-0.56,0.97-0.92,1.46-1.11,1.46c-0.6,0-1.38-0.2-2.32-0.59c-0.95-0.39-1.99-0.9-3.12-1.53c-1.13-0.62-2.28-1.33-3.43-2.12
		c-1.16-0.79-2.23-1.58-3.23-2.39c-0.99-0.81-1.84-1.6-2.53-2.36c-0.69-0.76-1.13-1.42-1.32-1.98c0-0.28,0.27-1.09,0.8-2.43
		c0.53-1.34,1.14-2.8,1.84-4.37c0.69-1.57,1.41-3.03,2.15-4.37c0.74-1.34,1.32-2.15,1.73-2.43c0.74,0.83,1.71,1.77,2.91,2.81
		c0.95,0.83,1.65,1.45,3.95,3.05c1.43,0.99,2.89,1.93,4.37,2.81C455.37,283.61,456.76,284.28,458.05,284.74z M470.95,264.07
		c1.9,2.36,7.24,6.47,7.04,6.31c0.97,0.79,1.17,0.89,8.5,4.37c-0.97,2.54-1.84,4.67-2.6,6.38c-0.76,1.71-1.42,3.09-1.98,4.13
		c-0.55,1.04-1.01,1.79-1.35,2.25c-0.35,0.46-0.59,0.69-0.73,0.69c-0.37,0-0.95-0.15-1.73-0.45c-0.79-0.3-1.69-0.73-2.71-1.28
		c-1.02-0.55-2.09-1.19-3.23-1.91c-1.13-0.72-2.21-1.48-3.23-2.29c-1.02-0.81-1.92-1.65-2.71-2.53c-0.79-0.88-1.34-1.76-1.67-2.64
		c0-0.32,0.22-1.05,0.66-2.19c0.44-1.13,0.97-2.39,1.6-3.78c0.62-1.39,1.31-2.74,2.05-4.06
		C469.61,265.77,470.3,264.77,470.95,264.07z"/>
	<path class="st1" d="M502.35,112.66c0.69,0,1.12,0.17,1.28,0.52c0.16,0.35,0.24,0.73,0.24,1.14c0,0.69-0.1,1.46-0.31,2.29
		s-0.45,1.69-0.73,2.57c-0.28,0.93-0.52,1.86-0.73,2.81c-0.21,0.95-0.31,1.86-0.31,2.74c0,1.8,0.45,3.23,1.35,4.27
		c0.9,1.04,2.09,1.87,3.57,2.5c1.48,0.62,3.19,1.12,5.13,1.49c1.9,0.42,3.85,0.85,5.86,1.28c2.01,0.44,4.01,1.01,6,1.7
		c1.99,0.69,3.79,1.67,5.41,2.91c2.78,2.22,4.22,4.95,5.55,7.7c1.41,2.92,2.81,6.08,2.81,9.5c0,2.64-0.19,5.72-0.56,9.26
		c-0.37,3.54-0.83,7.44-1.39,11.69c-0.79,5.92-3.08,11.59-5.69,16.72c-2.55,5.01-15.77,18.09-20.31,22.99
		c-3.61,3.9-20.28,18.56-24.16,21.84c-3.92,3.3-31.41,23.92-35.67,26c-8.36,4.09-20.96,9.85-25,11.34
		c-4.55,1.68-21.17,6.24-29.02,6.24c-7.85,0-13.97-0.6-20.81-3.36c-10.06-5.22-11.21-6.29-17.89-13.32
		c-3.29-3.46-9.32-13.86-10.75-18.83c-1.43-4.97-3.57-15.87-3.57-21.33c0-4.63,0.36-14.76,1.08-19.04
		c0.72-4.28,2.11-13.74,4.75-21.12c2.64-7.37,9.11-18.14,11.44-22.19c2.34-4.05,9.73-14.78,12.69-18.14
		c2.96-3.36,7.21-7.9,8.39-9.22c1.18-1.32,6.47-6.64,7.35-7.45c0.88-0.81,5.86-5.65,6.41-6s1.54-0.94,1.97-1.45
		c0.18-0.21,2.75-1.87,3.03-1.78c0.28,0.09,0.42,0.28,0.42,0.56c0,0.65-7.38,8.35-7.94,8.91c-4.39,5.04-19.27,20.97-23.61,28.47
		c-4.34,7.49-10.74,18.61-12.38,22.54c-1.64,3.93-4.21,16.13-4.85,19.56c-0.65,3.42-0.97,12.3-0.97,15.26c0,5.09,2.11,15.21,3.5,19
		s7.47,12.69,9.95,15.12c2.97,2.92,5.09,6.3,15.6,9.88c9.37,2.81,15.23,2.16,17.61,1.87c2.39-0.29,23.76-2.85,29.5-5.06
		c4.49-1.33,12.75-4.7,23.65-11.55c9.34-5.87,31.44-22.32,35.29-25.41c3.65-2.93,21.55-17.78,24.68-21.04
		c3.57-3.72,15.02-15.12,17.47-18.38c2.16-2.87,2.25-6.21,2.25-8.85c0-1.71-0.29-3.32-0.87-4.82c-0.58-1.5-1.53-2.88-2.84-4.13
		c-1.32-1.25-3.09-2.4-5.31-3.47c-2.22-1.06-4.95-2.06-8.19-2.98c-2.87-0.6-5.43-1.35-7.7-2.25c-2.27-0.9-4.19-2.06-5.76-3.47
		c-1.57-1.41-2.78-3.17-3.61-5.27c-0.83-2.1-1.25-4.68-1.25-7.74c0-1.9,0.21-3.98,0.62-6.24c0.42-2.27,1.09-4.76,2.01-7.49
		c1.06-3.01,2.03-5.31,2.91-6.9C500.87,113.46,501.65,112.66,502.35,112.66z"/>
	<path class="st1" d="M523.38,107.33c-2.36,0-4.56-0.46-6.59-1.39c-2.04-0.92-3.82-2.54-5.34-4.86h-0.42
		c-0.51,2.87,0.06,5.56-1.15,8.08c-1.2,2.52-2.51,4.9-3.92,7.15c-1.41,2.24-2.81,4.38-4.2,6.42c-1.39,2.08-2.5,4.12-3.33,6.11
		c-0.37,0.83-0.77,1.64-1.21,2.43c-0.44,0.79-1.01,1.18-1.7,1.18c-0.23,0-0.42-0.09-0.56-0.28c-0.14-0.19-0.24-0.41-0.31-0.66
		c-0.07-0.26-0.1-0.51-0.1-0.76c0-0.26,0-0.47,0-0.66c0-0.46,0.12-1.25,0.35-2.36c0.23-1.11,0.56-2.38,0.97-3.82
		s0.91-2.96,1.49-4.58c0.58-1.62,1.21-3.21,1.91-4.79c0.46-1.06,1.09-2.38,1.87-3.95c0.79-1.57,1.56-3.19,2.32-4.86
		c0.76-1.67,1.43-3.27,2.01-4.82c0.58-1.55,0.35-3.23,0.18-4.23c-0.29-1.68-1.04-3.44-1.67-6.35s-1.4-6.21-2.32-9.89
		c-0.93-3.68-1.92-7.6-2.98-11.76c-1.06-4.12-2.06-8.2-2.98-12.24c-0.92-4.05-1.7-7.9-2.32-11.55c-0.62-3.65-0.94-6.84-0.94-9.57
		c0-2.36,0.52-5.18,1.56-8.46c1.04-3.28,2.74-7.12,5.1-11.52l0.69,0.42c-0.09,0.42-0.14,0.9-0.14,1.46c0,0.56,0,1.09,0,1.6
		c0,2.82,0.28,6.13,0.83,9.92c0.55,3.79,1.32,7.94,2.29,12.45c0.97,4.51,2.08,9.31,3.33,14.4c1.25,5.09,2.57,10.31,3.95,15.68
		c1.39,5.37,2.92,9.99,4.61,13.88c1.69,3.89,3.43,6.94,5.24,9.16c1.25,1.62,2.14,3.49,2.67,5.62c0.53,2.13,0.8,4.14,0.8,6.04V107.33
		z"/>
	<path class="st1" d="M501.59,48.92c1.39,1.62,2.48,3.13,3.26,4.54c0.79,1.41,1.32,2.72,1.6,3.92c0.14,0.6,0.37,1.57,0.69,2.91
		c0.32,1.34,0.72,2.89,1.18,4.65c0.46,1.76,0.97,3.65,1.53,5.69c0.56,2.03,1.13,4.05,1.73,6.04c1.16,3.98,2.44,7.37,3.85,10.16
		c1.41,2.8,3.02,5.06,4.82,6.8c1.8,1.73,3.89,2.99,6.24,3.78c2.36,0.79,5.11,1.18,8.26,1.18c2.17,0,4.51-0.42,7.01-1.25
		s5.18-2.15,8.05-3.95c2.87-1.8,5.94-4.13,9.23-6.97c3.28-2.84,6.8-6.28,10.55-10.3V75.7c-4.21-0.74-7.99-1.79-11.34-3.16
		c-3.35-1.36-6.21-3.01-8.57-4.93c-2.36-1.92-4.16-4.08-5.41-6.49c-1.25-2.4-1.87-5-1.87-7.77c0-1.76,0.23-3.83,0.69-6.21
		c0.46-2.38,1.29-5.35,2.5-8.91c1.94-5.73,4.69-10.15,8.26-13.25c3.56-3.1,8.16-4.65,13.81-4.65c2.13,0,4.45,0.22,6.97,0.66
		c2.52,0.44,4.86,1.13,7.01,2.08c2.15,0.95,3.94,2.19,5.38,3.71c1.43,1.53,2.15,3.35,2.15,5.48c0,0.83-0.02,1.94-0.07,3.33
		c-0.05,1.39-0.07,2.82-0.07,4.3c0,2.08,0.02,3.77,0.07,5.06c0.05,1.3,0.07,2.34,0.07,3.12c0,0.28-0.03,0.62-0.1,1.04
		s-0.31,0.67-0.73,0.76c-0.51,0-0.86-0.42-1.04-1.25c-0.23-0.83-0.67-2.08-1.32-3.75c-0.37-1.11-1.13-2.23-2.29-3.36
		c-1.16-1.13-2.67-2.16-4.54-3.09c-1.87-0.92-4.09-1.68-6.66-2.25c-2.57-0.58-5.47-0.87-8.71-0.87c-2.08,0-4,0.23-5.76,0.69
		c-1.76,0.46-3.28,1.05-4.58,1.77c-1.3,0.72-2.3,1.52-3.02,2.39c-0.72,0.88-1.08,1.71-1.08,2.5c0,2.13,0.81,4.18,2.43,6.14
		c1.62,1.97,3.82,3.71,6.59,5.24c2.78,1.53,5.98,2.74,9.61,3.64c3.63,0.9,7.46,1.35,11.48,1.35c2.13,0,4.47-0.25,7.04-0.76
		c2.57-0.51,5.28-1.29,8.15-2.36c2.87-1.06,5.84-2.42,8.91-4.06c3.07-1.64,6.19-3.6,9.33-5.86l0.42,0.69
		c-1.11,2.08-2.07,4.05-2.88,5.9c-0.81,1.85-1.61,3.72-2.39,5.62c-0.88,2.22-2.34,4.27-4.37,6.14c-2.04,1.87-4.28,3.74-6.73,5.58
		c-2.5,1.85-5.03,3.76-7.6,5.72c-2.57,1.96-4.8,4.15-6.69,6.56c-4.35,5.5-8.42,10.48-12.21,14.92c-3.79,4.44-7.54,8.22-11.24,11.34
		c-3.7,3.12-7.47,5.54-11.31,7.25c-3.84,1.71-7.98,2.57-12.42,2.57c-3.47,0-6.72-0.51-9.75-1.53c-3.03-1.02-5.81-2.6-8.33-4.75
		c-2.52-2.15-4.78-4.93-6.76-8.33c-1.99-3.4-3.7-7.51-5.13-12.31c-0.92-3.15-1.78-6.33-2.57-9.54c-0.79-3.21-1.46-6.21-2.01-8.98
		c-0.56-2.78-0.99-5.2-1.32-7.28c-0.32-2.08-0.49-3.56-0.49-4.44c0-2.17,0.14-4.3,0.42-6.38s0.69-4.02,1.25-5.83H501.59z"/>
</g>
</svg>
